<?xml version="1.0" encoding="utf-8"?><svg xmlns="http://www.w3.org/2000/svg" viewBox="0 0 16 16"><path fill="#FFFFFF" d="M1,1h14v14H1V1z"/><path fill="#999999" d="M1,1v14h14V1H1z M2,2h12v12H2V2z"/><path fill="#69A550" d="M3,3h10v1H3V3z"/><path fill="#B4D2A7" d="M3,4h10v1H3V4z"/><path fill="#B4D2A7" d="M3,8h1v1H3V8z"/><path fill="#ECF4DC" d="M4,8h1v1H4V8z"/><path fill="#B4D2A7" d="M5,8h1v1H5V8z"/><path fill="#ECF4DC" d="M6,8h1v1H6V8z"/><path fill="#B4D2A7" d="M11,8h1v1h-1V8z"/><path fill="#ECF4DC" d="M12,8h1v1h-1V8z"/><path fill="#B4D2A7" d="M3,6h1v1H3V6z"/><path fill="#ECF4DC" d="M4,6h1v1H4V6z"/><path fill="#B4D2A7" d="M5,6h1v1H5V6z"/><path fill="#ECF4DC" d="M6,6h1v1H6V6z"/><path fill="#B4D2A7" d="M11,6h1v1h-1V6z"/><path fill="#ECF4DC" d="M12,6h1v1h-1V6z"/><path fill="#B4D2A7" d="M3,10h1v1H3V10z"/><path fill="#ECF4DC" d="M4,10h1v1H4V10z"/><path fill="#B4D2A7" d="M5,10h1v1H5V10z"/><path fill="#ECF4DC" d="M6,10h1v1H6V10z"/><path fill="#B4D2A7" d="M11,10h1v1h-1V10z"/><path fill="#ECF4DC" d="M12,10h1v1h-1V10z"/><path fill="#B4D2A7" d="M3,12h1v1H3V12z"/><path fill="#ECF4DC" d="M4,12h1v1H4V12z"/><path fill="#B4D2A7" d="M5,12h1v1H5V12z"/><path fill="#ECF4DC" d="M6,12h1v1H6V12z"/><path fill="#B4D2A7" d="M11,12h1v1h-1V12z"/><path fill="#ECF4DC" d="M12,12h1v1h-1V12z"/><path fill="#B4D2A7" d="M7,8h1v1H7V8z"/><path fill="#ECF4DC" d="M8,8h1v1H8V8z"/><path fill="#B4D2A7" d="M7,6h1v1H7V6z"/><path fill="#ECF4DC" d="M8,6h1v1H8V6z"/><path fill="#B4D2A7" d="M7,10h1v1H7V10z"/><path fill="#ECF4DC" d="M8,10h1v1H8V10z"/><path fill="#B4D2A7" d="M7,12h1v1H7V12z"/><path fill="#ECF4DC" d="M8,12h1v1H8V12z"/><path fill="#B4D2A7" d="M9,8h1v1H9V8z"/><path fill="#ECF4DC" d="M10,8h1v1h-1V8z"/><path fill="#B4D2A7" d="M9,6h1v1H9V6z"/><path fill="#ECF4DC" d="M10,6h1v1h-1V6z"/><path fill="#B4D2A7" d="M9,10h1v1H9V10z"/><path fill="#ECF4DC" d="M10,10h1v1h-1V10z"/><path fill="#B4D2A7" d="M9,12h1v1H9V12z"/><path fill="#ECF4DC" d="M10,12h1v1h-1V12z"/></svg>