<?xml version="1.0" encoding="utf-8"?><svg xmlns="http://www.w3.org/2000/svg" viewBox="0 0 64 64"><path fill="#FF5E00" d="M0,0h64v64H0V0z"/><path fill="#FFFFFF" d="M6,5.998h52v52H6V5.998z"/><path fill="#FF5E00" d="M28.292,46.217c-0.836,0.228-3.343,0.57-4.597,0.57c-5.813,0-8.435-2.432-8.435-13.982 s3.115-13.146,8.929-13.146c1.025,0,3.533,0.342,4.103,0.532v4.597c-1.253-0.304-3.229-0.57-4.597-0.57 c-2.204,0-3.153,0.988-3.153,8.852c0,7.865,0.835,9.157,3.153,9.157c1.558,0,3.647-0.342,4.597-0.57V46.217z"/><path fill="#FF5E00" d="M39.846,46.9c-7.523,0-8.891-4.673-8.891-13.981c0-8.929,1.596-13.374,8.891-13.374 s8.891,4.445,8.891,13.374C48.736,42.228,47.368,46.9,39.846,46.9z M39.846,23.648c-2.698,0-3.609,1.672-3.609,9.46 c0,7.675,0.911,9.688,3.609,9.688c2.697,0,3.609-2.014,3.609-9.688C43.455,25.32,42.543,23.648,39.846,23.648z"/></svg>