<?xml version="1.0" encoding="utf-8"?><svg xmlns="http://www.w3.org/2000/svg" viewBox="0 0 64 64"><path fill="#747474" d="M0,0h64v64H0V0z"/><path fill="#FFFFFF" d="M6,5.998h52v52H6V5.998z"/><path fill="#747474" d="M22.232,46.521l-5.015-21.353v21.353H12.62V19.925h7.561l5.091,21.771V19.925h4.521v26.596H22.232z"/><path fill="#747474" d="M43.246,46.9c-7.522,0-8.891-4.673-8.891-13.981c0-8.929,1.596-13.374,8.891-13.374 s8.891,4.445,8.891,13.374C52.137,42.228,50.77,46.9,43.246,46.9z M43.246,23.648c-2.697,0-3.609,1.672-3.609,9.46 c0,7.675,0.912,9.688,3.609,9.688s3.609-2.014,3.609-9.688C46.855,25.32,45.943,23.648,43.246,23.648z"/></svg>