<?xml version="1.0" encoding="utf-8"?><svg xmlns="http://www.w3.org/2000/svg" viewBox="0 0 64 64"><path fill="#FF0000" d="M0,0h64v64H0V0z"/><path fill="#FFFFFF" d="M6,5.998h52v52H6V5.998z"/><path fill="#FF0000" d="M22.291,46.787c-1.672,0-4.104-0.229-5.396-0.57v-4.521c1.178,0.304,3.534,0.608,5.015,0.608 c2.356,0,3.875-0.874,3.875-3.306c0-2.773-1.178-3.647-3.229-4.065c-4.217-0.874-5.889-3.191-5.889-7.637 c0-5.623,3.229-7.637,9.043-7.637c1.406,0,3.609,0.266,4.711,0.57v4.483c-1.292-0.304-3.761-0.57-5.091-0.57 c-2.166,0-3.382,0.798-3.382,2.736c0,2.432,0.608,2.963,3.001,3.458c3.647,0.76,6.117,2.622,6.117,8.283 C31.067,45.761,27.344,46.787,22.291,46.787z"/><path fill="#FF0000" d="M46.761,46.217c-0.836,0.228-3.344,0.57-4.598,0.57c-5.812,0-8.435-2.432-8.435-13.982 s3.115-13.146,8.929-13.146c1.026,0,3.533,0.342,4.104,0.532v4.597c-1.254-0.304-3.229-0.57-4.598-0.57 c-2.203,0-3.153,0.988-3.153,8.852c0,7.865,0.836,9.157,3.153,9.157c1.558,0,3.647-0.342,4.598-0.57V46.217z"/></svg>