<?xml version="1.0" encoding="utf-8"?><svg xmlns="http://www.w3.org/2000/svg" viewBox="0 0 64 64"><path fill="#4F8638" d="M0,0h64v64H0V0z"/><path fill="#FFFFFF" d="M49.5,29.3l-5.5-1.6c-0.2-0.4-0.3-0.9-0.5-1.3l2.8-5c0.1-0.3,0.1-0.6-0.1-0.8l-3-3c-0.2-0.2-0.5-0.2-0.8-0.1 l-5,2.8c-0.4-0.2-0.8-0.4-1.3-0.5l-1.6-5.5c-0.1-0.3-0.3-0.5-0.6-0.5h-4.2c-0.3,0-0.5,0.2-0.6,0.5l-1.6,5.5 c-0.4,0.2-0.9,0.3-1.3,0.5l-5-2.8c-0.2-0.1-0.6-0.1-0.8,0.1l-3,3c-0.2,0.2-0.2,0.5-0.1,0.8l2.8,5c-0.2,0.4-0.4,0.8-0.5,1.3l-5.5,1.6 c-0.3,0.1-0.5,0.3-0.5,0.6v4.2c0,0.3,0.2,0.5,0.5,0.6l5.5,1.6c0.2,0.4,0.3,0.9,0.5,1.3l-2.8,5c-0.1,0.3-0.1,0.6,0.1,0.8l3,3 c0.2,0.2,0.5,0.2,0.8,0.1l5-2.8c0.4,0.2,0.8,0.4,1.3,0.5l1.6,5.5c0.1,0.3,0.3,0.5,0.6,0.5h4.2c0.3,0,0.5-0.2,0.6-0.5l1.6-5.5 c0.4-0.2,0.9-0.3,1.3-0.5l5,2.8c0.3,0.1,0.6,0.1,0.8-0.1l3-3c0.2-0.2,0.2-0.5,0.1-0.8l-2.8-5c0.2-0.4,0.4-0.8,0.5-1.3l5.5-1.6 c0.3-0.1,0.5-0.3,0.5-0.6v-4.2C50,29.6,49.8,29.4,49.5,29.3L49.5,29.3z M32,39.7c-4.3,0-7.7-3.5-7.7-7.7s3.5-7.7,7.7-7.7 s7.7,3.5,7.7,7.7S36.3,39.7,32,39.7L32,39.7z"/><path fill="#FFFFFF" d="M32,32h24v24H32V32z"/><path fill="#4F8638" d="M54,34v20H34V34H54 M58,30H30v28h28V30z"/><path fill="#4F8638" d="M41,41.3V50h-2.1v-8.7h-2.2v-1.8h6.4v1.8H41z"/><path fill="#4F8638" d="M48.9,50h-3.2l-2.1-10.5h2.2l1.6,9l1.6-9h2L48.9,50z"/></svg>